{"scene":0,"asset":{"generator":"ImageToStl.com","version":"2.0"},"scenes":[{"name":"Scene","nodes":[0]}],"nodes":[{"name":"Node0","children":[1]},{"name":"Node1","mesh":0,"children":[2,3,4]},{"name":"Node2","mesh":1},{"name":"Node3","mesh":2},{"name":"Node4","mesh":3}],"materials":[{"name":"#D0D0D0FF","pbrMetallicRoughness":{"baseColorFactor":[0.8156863,0.8156863,0.8156863,1.0],"metallicFactor":0.05,"roughnessFactor":0.5},"doubleSided":true},{"name":"#666666FF","pbrMetallicRoughness":{"baseColorFactor":[0.4,0.4,0.4,1.0],"metallicFactor":0.05,"roughnessFactor":0.5},"doubleSided":true},{"name":"#CCCCCCFF","pbrMetallicRoughness":{"baseColorFactor":[0.8,0.8,0.8,1.0],"metallicFactor":0.05,"roughnessFactor":0.5},"doubleSided":true}],"meshes":[{"name":"Mesh0","primitives":[{"indices":1,"material":1,"attributes":{"POSITION":0}}]},{"name":"Mesh0","primitives":[{"indices":3,"material":0,"attributes":{"POSITION":2}}]},{"name":"Mesh0","primitives":[{"indices":5,"material":1,"attributes":{"POSITION":4}}]},{"name":"Mesh0","primitives":[{"indices":7,"material":2,"attributes":{"POSITION":6}}]}],"accessors":[{"bufferView":0,"componentType":5126,"count":29835,"type":"VEC3","min":[-74.26153,-120.862404,-389.12128],"max":[49.062206,56.171944,-16.0]},{"bufferView":1,"componentType":5123,"count":175797,"type":"SCALAR"},{"bufferView":2,"componentType":5126,"count":8596,"type":"VEC3","min":[-139.94228,-139.90836,-90.580864],"max":[139.94228,139.92485,-60.263767]},{"bufferView":3,"componentType":5123,"count":51576,"type":"SCALAR"},{"bufferView":4,"componentType":5126,"count":8352,"type":"VEC3","min":[-21.17176,-19.040442,-389.12128],"max":[21.17176,17.999403,-72.84128]},{"bufferView":5,"componentType":5123,"count":46587,"type":"SCALAR"},{"bufferView":6,"componentType":5126,"count":2642,"type":"VEC3","min":[-294.49075,-294.49075,-60.263767],"max":[294.49075,294.49075,6.916]},{"bufferView":7,"componentType":5123,"count":15840,"type":"SCALAR"}],"bufferViews":[{"target":34962,"buffer":0,"byteLength":358020,"byteOffset":0},{"target":34963,"buffer":0,"byteLength":351594,"byteOffset":358020},{"target":34962,"buffer":0,"byteLength":103152,"byteOffset":709616},{"target":34963,"buffer":0,"byteLength":103152,"byteOffset":812768},{"target":34962,"buffer":0,"byteLength":100224,"byteOffset":915920},{"target":34963,"buffer":0,"byteLength":93174,"byteOffset":1016144},{"target":34962,"buffer":0,"byteLength":31704,"byteOffset":1109320},{"target":34963,"buffer":0,"byteLength":31680,"byteOffset":1141024}],"buffers":[{"byteLength":1172704,"uri":"data:application/octet-stream;base64,"}]}