{"scene":0,"asset":{"generator":"ImageToStl.com","version":"2.0"},"scenes":[{"name":"Scene","nodes":[0]}],"nodes":[{"name":"Node0","children":[1]},{"name":"Node1","mesh":0}],"materials":[{"name":"#333333FF","pbrMetallicRoughness":{"baseColorFactor":[0.2,0.2,0.2,1.0],"metallicFactor":0.05,"roughnessFactor":0.5},"doubleSided":true}],"meshes":[{"name":"Mesh0","primitives":[{"indices":1,"material":0,"attributes":{"POSITION":0}}]}],"accessors":[{"bufferView":0,"componentType":5126,"count":9677,"type":"VEC3","min":[-43.477936,-0.5,-80.00084],"max":[43.478245,35.0,80.0]},{"bufferView":1,"componentType":5123,"count":58050,"type":"SCALAR"}],"bufferViews":[{"target":34962,"buffer":0,"byteLength":116124,"byteOffset":0},{"target":34963,"buffer":0,"byteLength":116100,"byteOffset":116124}],"buffers":[{"byteLength":232224,"uri":"data:application/octet-stream;base64,"}]}