{"scene":0,"asset":{"generator":"ImageToStl.com","version":"2.0"},"scenes":[{"name":"Scene","nodes":[0]}],"nodes":[{"name":"Node0","children":[1]},{"name":"Node1","mesh":0,"children":[2]},{"name":"Node2","mesh":1}],"materials":[{"name":"#CCCCCCFF","pbrMetallicRoughness":{"baseColorFactor":[0.8,0.8,0.8,1.0],"metallicFactor":0.05,"roughnessFactor":0.5},"doubleSided":true},{"name":"#666666FF","pbrMetallicRoughness":{"baseColorFactor":[0.4,0.4,0.4,1.0],"metallicFactor":0.05,"roughnessFactor":0.5},"doubleSided":true}],"meshes":[{"name":"Mesh0","primitives":[{"indices":1,"material":1,"attributes":{"POSITION":0}}]},{"name":"Mesh0","primitives":[{"indices":3,"material":0,"attributes":{"POSITION":2}}]}],"accessors":[{"bufferView":0,"componentType":5126,"count":5470,"type":"VEC3","min":[18.36038,-48.044865,0.0],"max":[104.599174,0.044792704,187.0]},{"bufferView":1,"componentType":5123,"count":32808,"type":"SCALAR"},{"bufferView":2,"componentType":5126,"count":2885,"type":"VEC3","min":[0.0456806,-47.940983,0.0],"max":[84.0,-0.058954533,187.0]},{"bufferView":3,"componentType":5123,"count":17298,"type":"SCALAR"}],"bufferViews":[{"target":34962,"buffer":0,"byteLength":65640,"byteOffset":0},{"target":34963,"buffer":0,"byteLength":65616,"byteOffset":65640},{"target":34962,"buffer":0,"byteLength":34620,"byteOffset":131256},{"target":34963,"buffer":0,"byteLength":34596,"byteOffset":165876}],"buffers":[{"byteLength":200472,"uri":"data:application/octet-stream;base64,"}]}