{"scene":0,"asset":{"generator":"ImageToStl.com","version":"2.0"},"scenes":[{"name":"Scene","nodes":[0]}],"nodes":[{"name":"Node0","children":[1]},{"name":"Node1","mesh":0,"children":[2,3,4,5,6]},{"name":"Node2","mesh":1},{"name":"Node3","mesh":2},{"name":"Node4","mesh":3},{"name":"Node5","mesh":4},{"name":"Node6","mesh":5}],"materials":[{"name":"#CCCCCCFF","pbrMetallicRoughness":{"baseColorFactor":[0.8,0.8,0.8,1.0],"metallicFactor":0.05,"roughnessFactor":0.5},"doubleSided":true},{"name":"#666666FF","pbrMetallicRoughness":{"baseColorFactor":[0.4,0.4,0.4,1.0],"metallicFactor":0.05,"roughnessFactor":0.5},"doubleSided":true},{"name":"#999999FF","pbrMetallicRoughness":{"baseColorFactor":[0.6,0.6,0.6,1.0],"metallicFactor":0.05,"roughnessFactor":0.5},"doubleSided":true},{"name":"#009900FF","pbrMetallicRoughness":{"baseColorFactor":[0.0,0.6,0.0,1.0],"metallicFactor":0.05,"roughnessFactor":0.5},"doubleSided":true}],"meshes":[{"name":"Mesh0","primitives":[{"indices":1,"material":0,"attributes":{"POSITION":0}}]},{"name":"Mesh0","primitives":[{"indices":3,"material":0,"attributes":{"POSITION":2}}]},{"name":"Mesh0","primitives":[{"indices":5,"material":0,"attributes":{"POSITION":4}}]},{"name":"Mesh0","primitives":[{"indices":7,"material":1,"attributes":{"POSITION":6}}]},{"name":"Mesh0","primitives":[{"indices":9,"material":2,"attributes":{"POSITION":8}}]},{"name":"Mesh0","primitives":[{"indices":11,"material":3,"attributes":{"POSITION":10}}]}],"accessors":[{"bufferView":0,"componentType":5126,"count":10189,"type":"VEC3","min":[-94.723526,-60.01362,-152.26346],"max":[94.71824,111.505875,-2.6714563]},{"bufferView":1,"componentType":5123,"count":58254,"type":"SCALAR"},{"bufferView":2,"componentType":5126,"count":5272,"type":"VEC3","min":[-93.5644,-60.186924,-29.99823],"max":[93.60103,81.94335,-2.6714563]},{"bufferView":3,"componentType":5123,"count":27357,"type":"SCALAR"},{"bufferView":4,"componentType":5126,"count":6106,"type":"VEC3","min":[-191.59587,-297.00137,-32.328693],"max":[191.59587,297.01038,0.6138]},{"bufferView":5,"componentType":5123,"count":34398,"type":"SCALAR"},{"bufferView":6,"componentType":5126,"count":1176,"type":"VEC3","min":[-191.5747,-296.9847,-1.8862],"max":[191.5747,296.9847,7.1638]},{"bufferView":7,"componentType":5123,"count":7044,"type":"SCALAR"},{"bufferView":8,"componentType":5126,"count":300,"type":"VEC3","min":[-187.98048,-293.39047,3.1638],"max":[187.98048,293.39047,7.2888]},{"bufferView":9,"componentType":5123,"count":1788,"type":"SCALAR"},{"bufferView":10,"componentType":5126,"count":66,"type":"VEC3","min":[-1.75,-52.752426,-3.4419405],"max":[1.75,-50.752445,-3.433214]},{"bufferView":11,"componentType":5123,"count":192,"type":"SCALAR"}],"bufferViews":[{"target":34962,"buffer":0,"byteLength":122268,"byteOffset":0},{"target":34963,"buffer":0,"byteLength":116508,"byteOffset":122268},{"target":34962,"buffer":0,"byteLength":63264,"byteOffset":238776},{"target":34963,"buffer":0,"byteLength":54714,"byteOffset":302040},{"target":34962,"buffer":0,"byteLength":73272,"byteOffset":356756},{"target":34963,"buffer":0,"byteLength":68796,"byteOffset":430028},{"target":34962,"buffer":0,"byteLength":14112,"byteOffset":498824},{"target":34963,"buffer":0,"byteLength":14088,"byteOffset":512936},{"target":34962,"buffer":0,"byteLength":3600,"byteOffset":527024},{"target":34963,"buffer":0,"byteLength":3576,"byteOffset":530624},{"target":34962,"buffer":0,"byteLength":792,"byteOffset":534200},{"target":34963,"buffer":0,"byteLength":384,"byteOffset":534992}],"buffers":[{"byteLength":535376,"uri":"data:application/octet-stream;base64,"}]}