{"scene":0,"asset":{"generator":"ImageToStl.com","version":"2.0"},"scenes":[{"name":"Scene","nodes":[0]}],"nodes":[{"name":"Node0","children":[1]},{"name":"Node1","mesh":0}],"materials":[{"name":"#CCCCCCFF","pbrMetallicRoughness":{"baseColorFactor":[0.8,0.8,0.8,1.0],"metallicFactor":0.05,"roughnessFactor":0.5},"doubleSided":true}],"meshes":[{"name":"Mesh0","primitives":[{"indices":1,"material":0,"attributes":{"POSITION":0}}]}],"accessors":[{"bufferView":0,"componentType":5126,"count":12323,"type":"VEC3","min":[-89.62508,-137.46414,-46.89205],"max":[89.62508,117.21515,17.4]},{"bufferView":1,"componentType":5123,"count":73926,"type":"SCALAR"}],"bufferViews":[{"target":34962,"buffer":0,"byteLength":147876,"byteOffset":0},{"target":34963,"buffer":0,"byteLength":147852,"byteOffset":147876}],"buffers":[{"byteLength":295728,"uri":"data:application/octet-stream;base64,"}]}